<svg id="svg" version="1.1" xmlns="http://www.w3.org/2000/svg" xmlns:xlink="http://www.w3.org/1999/xlink" width="400" height="400" viewBox="0, 0, 400,400"><g id="svgg"><path id="path0" d="M163.750 105.856 C 159.624 106.610,157.304 107.091,152.583 108.176 C 140.626 110.923,127.151 115.408,116.833 120.076 C 115.688 120.595,114.478 121.132,114.145 121.269 C 113.644 121.477,113.257 121.951,111.877 124.052 C 83.847 166.718,72.405 209.893,76.093 259.083 C 76.238 261.008,76.387 262.740,76.424 262.932 C 76.503 263.330,78.662 264.912,83.916 268.421 C 98.226 277.976,112.734 285.384,128.417 291.143 C 131.223 292.174,139.216 294.833,139.507 294.833 C 140.329 294.833,148.118 282.668,151.971 275.366 L 153.141 273.149 152.695 272.974 C 152.450 272.877,151.800 272.625,151.250 272.412 C 145.478 270.182,135.331 265.231,132.121 263.078 C 131.858 262.901,131.968 262.773,133.121 261.912 C 133.834 261.380,135.001 260.464,135.716 259.878 L 137.016 258.811 139.883 260.061 C 179.206 277.215,221.914 277.190,260.798 259.989 C 262.221 259.360,263.467 258.895,263.567 258.957 C 263.668 259.018,264.651 259.784,265.752 260.659 C 266.853 261.534,267.941 262.374,268.169 262.526 C 268.683 262.868,268.637 262.918,266.833 263.955 C 261.514 267.014,255.070 270.111,249.500 272.285 C 248.446 272.696,247.531 273.082,247.466 273.142 C 246.870 273.697,259.988 294.833,260.929 294.833 C 261.240 294.833,267.011 292.935,270.583 291.658 C 288.671 285.193,306.148 276.039,321.951 264.753 C 324.307 263.070,324.015 263.781,324.417 258.750 C 326.009 238.812,324.957 219.249,321.318 201.083 C 315.884 173.962,305.433 149.113,289.067 124.402 L 287.181 121.555 284.882 120.538 C 270.018 113.962,254.165 109.047,238.583 106.183 C 235.136 105.549,235.629 105.470,234.869 106.776 C 233.909 108.426,231.513 113.261,230.152 116.293 C 229.507 117.733,228.953 118.936,228.921 118.968 C 228.890 118.999,228.051 118.907,227.057 118.763 C 210.733 116.399,187.935 116.430,173.083 118.836 C 172.533 118.925,171.999 118.998,171.896 118.999 C 171.794 118.999,171.352 118.194,170.916 117.208 C 170.044 115.239,166.001 107.071,165.472 106.208 C 165.119 105.633,165.049 105.619,163.750 105.856 M162.500 184.940 C 179.132 187.852,186.956 209.451,176.858 224.577 C 167.506 238.585,148.290 237.771,139.876 223.010 C 129.472 204.756,143.250 181.570,162.500 184.940 M245.495 184.949 C 263.788 188.212,270.771 213.646,257.260 227.798 C 242.872 242.869,219.428 231.582,219.428 209.583 C 219.428 193.886,231.523 182.456,245.495 184.949 " stroke="none" fill="#fbfbfc" fill-rule="evenodd"></path><path id="path1" d="M189.417 0.162 C 185.696 0.394,182.087 0.664,181.417 0.761 C 181.050 0.814,179.775 0.961,178.583 1.087 C 174.339 1.537,170.966 2.002,166.083 2.812 C 163.022 3.320,158.194 4.282,155.583 4.905 C 155.033 5.036,153.871 5.309,153.000 5.511 C 151.550 5.848,145.787 7.386,144.000 7.913 C 143.587 8.034,142.575 8.333,141.750 8.577 C 139.894 9.126,132.888 11.461,131.083 12.132 C 128.337 13.154,124.956 14.476,123.750 15.001 C 123.567 15.081,122.329 15.610,121.000 16.177 C 119.671 16.744,118.133 17.415,117.583 17.668 C 117.033 17.921,116.208 18.296,115.750 18.503 C 113.104 19.695,104.518 24.078,103.128 24.945 C 102.786 25.159,102.461 25.333,102.405 25.333 C 101.786 25.333,90.212 32.600,84.917 36.313 C 84.458 36.634,83.858 37.052,83.583 37.241 C 83.105 37.570,78.084 41.307,77.521 41.753 C 75.722 43.179,72.731 45.584,72.667 45.657 C 72.621 45.708,72.209 46.050,71.751 46.417 C 68.921 48.683,62.357 54.671,58.937 58.105 C 54.787 62.272,51.187 66.157,47.762 70.167 C 45.795 72.468,45.491 72.841,41.728 77.551 C 38.504 81.586,29.333 94.990,29.333 95.666 C 29.333 95.743,29.275 95.831,29.204 95.861 C 29.061 95.922,26.523 100.197,25.212 102.583 C 21.204 109.877,18.507 115.475,14.892 124.000 C 14.755 124.321,14.577 124.733,14.494 124.917 C 14.324 125.295,13.474 127.540,12.476 130.250 C 12.105 131.258,11.736 132.233,11.657 132.417 C 11.414 132.980,9.043 140.159,8.575 141.750 C 8.332 142.575,8.034 143.587,7.913 144.000 C 7.386 145.787,5.848 151.550,5.511 153.000 C 5.309 153.871,5.035 155.033,4.903 155.583 C 4.681 156.508,4.519 157.264,3.923 160.167 C 3.041 164.467,2.247 169.213,1.667 173.667 C 1.237 176.962,0.876 180.231,0.672 182.667 C 0.584 183.721,0.415 185.708,0.297 187.083 C 0.002 190.534,0.002 209.466,0.297 212.917 C 0.415 214.292,0.583 216.279,0.670 217.333 C 1.244 224.244,2.485 232.826,3.923 239.833 C 4.046 240.429,4.261 241.479,4.401 242.167 C 4.542 242.854,4.730 243.717,4.821 244.083 C 4.911 244.450,5.186 245.612,5.433 246.667 C 5.839 248.401,7.360 254.127,7.913 256.000 C 8.034 256.412,8.331 257.415,8.572 258.228 C 9.232 260.456,11.778 268.051,12.155 268.917 C 12.235 269.100,12.763 270.487,13.328 272.000 C 14.250 274.466,14.486 275.065,15.001 276.250 C 15.081 276.433,15.610 277.671,16.176 279.000 C 18.031 283.349,21.027 289.633,22.969 293.250 C 23.313 293.892,24.038 295.242,24.579 296.250 C 25.827 298.578,28.790 303.667,29.099 304.013 C 29.228 304.158,29.333 304.324,29.333 304.383 C 29.333 304.441,29.912 305.410,30.619 306.536 C 31.706 308.268,32.258 309.118,33.837 311.500 C 34.168 312.000,35.621 314.106,36.251 315.000 C 36.606 315.504,37.054 316.142,37.245 316.417 C 37.634 316.976,41.352 321.979,41.728 322.449 C 46.213 328.064,47.838 330.008,50.894 333.417 C 57.183 340.432,66.009 348.963,71.764 353.592 C 72.215 353.954,72.621 354.291,72.667 354.342 C 72.712 354.393,73.313 354.880,74.000 355.425 C 74.688 355.971,75.356 356.517,75.485 356.640 C 75.614 356.762,76.139 357.174,76.652 357.555 C 77.164 357.936,77.621 358.291,77.667 358.343 C 77.767 358.458,82.877 362.270,83.583 362.758 C 83.858 362.948,84.496 363.394,85.000 363.749 C 87.977 365.847,93.427 369.418,95.591 370.688 C 95.962 370.905,97.350 371.731,98.674 372.523 C 99.999 373.315,101.608 374.243,102.250 374.586 C 102.892 374.928,103.492 375.264,103.583 375.330 C 104.877 376.274,116.033 381.710,121.083 383.859 C 122.367 384.405,123.642 384.951,123.917 385.072 C 124.192 385.193,124.904 385.483,125.500 385.715 C 129.002 387.081,129.879 387.419,131.083 387.867 C 132.879 388.536,139.885 390.872,141.750 391.423 C 142.575 391.667,143.587 391.966,144.000 392.088 C 144.412 392.210,146.025 392.653,147.583 393.073 C 149.142 393.492,150.679 393.911,151.000 394.002 C 151.321 394.094,152.408 394.356,153.417 394.585 C 154.425 394.814,155.512 395.072,155.833 395.160 C 156.398 395.313,160.368 396.140,162.750 396.600 C 164.206 396.882,167.587 397.445,169.636 397.749 C 170.490 397.875,171.390 398.020,171.636 398.071 C 173.710 398.502,183.906 399.493,189.750 399.833 C 193.208 400.034,206.812 400.033,210.250 399.832 C 215.849 399.503,217.476 399.367,222.250 398.826 C 229.259 398.032,235.003 397.107,241.333 395.755 C 242.846 395.432,244.533 395.063,245.083 394.935 C 245.633 394.807,246.608 394.586,247.250 394.444 C 248.294 394.212,254.074 392.655,256.000 392.087 C 259.117 391.168,260.181 390.835,263.500 389.739 C 265.563 389.058,267.380 388.425,267.539 388.333 C 267.699 388.242,267.912 388.167,268.014 388.167 C 268.116 388.167,268.436 388.065,268.725 387.942 C 269.014 387.818,269.662 387.562,270.167 387.373 C 272.374 386.546,275.416 385.365,276.083 385.076 C 276.358 384.957,277.671 384.395,279.000 383.826 C 286.715 380.525,295.372 376.123,302.056 372.103 C 303.142 371.451,304.154 370.842,304.307 370.750 C 308.957 367.957,314.524 364.171,320.331 359.853 C 321.384 359.070,322.359 358.338,322.498 358.227 C 322.637 358.117,323.762 357.222,325.000 356.240 C 326.237 355.257,327.287 354.408,327.333 354.352 C 327.379 354.296,327.791 353.950,328.248 353.583 C 334.800 348.332,345.415 337.829,352.166 329.917 C 354.144 327.599,355.895 325.457,358.236 322.492 C 359.005 321.517,362.537 316.746,363.266 315.697 C 366.166 311.524,370.667 304.640,370.667 304.378 C 370.667 304.325,370.840 304.049,371.051 303.766 C 371.479 303.193,374.667 297.750,374.667 297.593 C 374.667 297.538,374.841 297.214,375.055 296.872 C 378.090 292.011,384.000 279.172,387.500 269.833 C 387.655 269.421,387.868 268.872,387.974 268.614 C 388.080 268.356,388.167 268.074,388.167 267.987 C 388.167 267.900,388.242 267.699,388.334 267.539 C 388.528 267.203,390.773 260.452,391.423 258.250 C 391.667 257.425,391.966 256.412,392.088 256.000 C 392.210 255.588,392.653 253.975,393.073 252.417 C 393.492 250.858,393.911 249.321,394.002 249.000 C 394.094 248.679,394.356 247.592,394.585 246.583 C 394.814 245.575,395.072 244.487,395.160 244.167 C 395.313 243.602,396.140 239.632,396.600 237.250 C 397.098 234.674,397.883 229.724,398.253 226.833 C 398.388 225.779,398.573 224.392,398.665 223.750 C 398.846 222.487,399.072 220.238,399.337 217.083 C 399.429 215.983,399.587 214.221,399.686 213.167 C 399.955 210.330,400.070 194.056,399.849 190.167 C 399.627 186.268,399.253 181.546,398.931 178.583 C 398.606 175.594,398.183 172.173,398.071 171.636 C 398.020 171.390,397.874 170.490,397.747 169.636 C 397.239 166.220,396.667 162.982,396.087 160.250 C 395.951 159.608,395.690 158.371,395.506 157.500 C 394.928 154.759,394.237 151.854,393.505 149.083 C 392.879 146.718,392.543 145.536,391.422 141.750 C 390.758 139.509,388.525 132.793,388.333 132.461 C 388.242 132.301,388.167 132.088,388.167 131.986 C 388.167 131.884,388.063 131.564,387.936 131.275 C 387.809 130.986,387.250 129.550,386.693 128.083 C 384.344 121.895,382.314 117.292,379.016 110.667 C 374.460 101.517,369.650 93.429,363.754 85.000 C 362.815 83.657,358.979 78.450,358.236 77.508 C 354.704 73.034,352.000 69.807,348.453 65.833 C 346.249 63.365,337.133 54.202,334.750 52.060 C 332.712 50.228,329.235 47.212,328.236 46.408 C 327.785 46.046,327.342 45.669,327.250 45.571 C 327.158 45.472,326.558 44.987,325.917 44.491 C 325.275 43.996,324.712 43.549,324.667 43.498 C 324.621 43.446,324.096 43.032,323.500 42.577 C 322.904 42.122,322.379 41.708,322.333 41.656 C 322.221 41.529,317.617 38.088,316.623 37.387 C 316.187 37.080,315.399 36.524,314.873 36.153 C 309.877 32.628,301.524 27.435,296.417 24.680 C 294.858 23.840,293.246 22.968,292.833 22.744 C 291.879 22.224,287.003 19.813,284.500 18.624 C 282.930 17.878,279.750 16.482,276.000 14.892 C 275.679 14.755,275.267 14.577,275.083 14.494 C 274.701 14.322,272.173 13.353,270.333 12.674 C 269.646 12.420,268.896 12.138,268.667 12.048 C 268.438 11.957,267.425 11.605,266.417 11.264 C 265.408 10.923,264.433 10.578,264.250 10.497 C 263.874 10.331,258.743 8.721,256.833 8.170 C 256.146 7.971,255.396 7.742,255.167 7.661 C 254.938 7.580,253.588 7.210,252.167 6.838 C 250.746 6.467,249.321 6.089,249.000 5.997 C 248.679 5.906,247.592 5.643,246.583 5.413 C 245.575 5.183,244.450 4.920,244.083 4.828 C 240.423 3.907,232.034 2.412,226.333 1.665 C 222.708 1.190,219.787 0.872,217.167 0.668 C 215.929 0.571,214.167 0.411,213.250 0.313 C 211.274 0.101,192.312 -0.019,189.417 0.162 M166.174 107.382 L 167.098 109.083 167.778 109.041 C 168.208 109.014,168.531 109.086,168.655 109.236 C 168.850 109.471,173.215 118.060,173.359 118.493 C 173.421 118.679,173.772 118.671,175.425 118.444 C 190.657 116.350,209.622 116.374,225.728 118.505 C 227.090 118.686,228.370 118.833,228.570 118.833 C 228.877 118.833,229.077 118.508,229.829 116.792 C 230.721 114.756,234.542 107.050,235.148 106.064 L 235.468 105.545 237.776 105.950 C 253.618 108.730,272.526 114.655,286.833 121.323 C 287.063 121.429,287.656 122.136,288.152 122.893 C 288.903 124.039,289.177 124.319,289.789 124.572 C 290.600 124.908,291.710 126.450,295.615 132.667 C 315.503 164.331,325.869 196.009,328.201 232.250 C 328.471 236.445,328.470 251.758,328.199 256.083 C 327.958 259.940,327.532 265.343,327.408 266.112 C 327.213 267.323,314.143 275.894,303.750 281.627 C 292.450 287.859,271.196 296.793,264.567 298.097 C 264.070 298.194,261.648 295.345,261.788 294.827 C 261.810 294.750,261.598 294.766,261.317 294.864 C 261.029 294.964,260.754 294.978,260.682 294.896 C 257.994 291.777,247.333 274.450,247.333 273.200 C 247.333 273.120,248.365 272.654,249.625 272.163 C 254.287 270.347,260.268 267.514,265.383 264.699 L 268.015 263.250 267.404 262.715 C 266.822 262.205,266.767 262.190,266.271 262.409 C 259.112 265.561,255.907 266.820,250.333 268.671 C 219.740 278.830,187.631 278.807,156.805 268.604 C 151.324 266.790,147.998 265.494,140.898 262.407 C 140.383 262.183,140.369 262.190,138.482 263.703 C 137.438 264.541,136.583 265.297,136.583 265.384 C 136.583 265.800,145.511 270.045,150.739 272.114 C 152.028 272.624,153.113 273.069,153.150 273.101 C 153.187 273.134,153.020 273.540,152.780 274.003 L 152.343 274.845 152.713 274.991 C 152.917 275.071,153.785 275.406,154.644 275.736 C 155.502 276.066,156.271 276.378,156.353 276.429 C 157.098 276.889,143.864 298.167,142.833 298.167 C 142.454 298.167,135.071 295.705,131.610 294.425 C 113.768 287.826,97.610 279.281,82.051 268.217 C 80.038 266.786,79.499 266.240,79.730 265.866 C 79.776 265.791,79.041 265.184,78.095 264.516 L 76.376 263.303 76.272 262.277 C 75.079 250.475,75.108 231.317,76.334 220.500 C 77.290 212.069,77.971 207.508,79.176 201.446 C 82.782 183.314,88.562 166.591,97.190 149.333 C 101.938 139.836,107.398 130.457,112.615 122.836 L 113.583 121.422 116.000 120.358 C 131.759 113.421,147.258 108.692,163.750 105.789 C 165.342 105.509,165.054 105.320,166.174 107.382 M158.250 188.329 C 141.809 191.627,133.945 213.950,144.267 228.022 C 144.578 228.447,144.833 228.850,144.833 228.917 C 144.833 229.108,145.801 229.921,147.131 230.849 C 153.764 235.472,162.450 235.748,169.512 231.558 C 179.158 225.835,183.674 212.688,179.988 201.059 C 179.049 198.095,177.019 194.408,175.413 192.750 C 175.058 192.383,174.779 192.039,174.792 191.985 C 174.805 191.932,174.388 191.482,173.866 190.985 L 172.917 190.083 173.744 190.958 C 174.710 191.981,174.659 192.037,173.462 191.272 C 169.040 188.448,163.246 187.327,158.250 188.329 M241.417 188.277 C 224.447 191.339,216.806 214.130,227.807 228.867 C 231.825 234.249,242.987 236.109,250.483 232.645 C 264.276 226.273,268.640 206.514,259.102 193.620 C 256.163 189.648,247.808 187.124,241.417 188.277 M226.661 191.125 L 225.750 192.083 226.708 191.172 C 227.235 190.671,227.667 190.240,227.667 190.214 C 227.667 190.090,227.507 190.235,226.661 191.125 M324.872 253.000 C 324.872 253.321,324.906 253.452,324.948 253.292 C 324.990 253.131,324.990 252.869,324.948 252.708 C 324.906 252.548,324.872 252.679,324.872 253.000 M188.708 272.615 C 188.869 272.657,189.131 272.657,189.292 272.615 C 189.452 272.573,189.321 272.539,189.000 272.539 C 188.679 272.539,188.548 272.573,188.708 272.615 M211.542 272.615 C 211.702 272.657,211.965 272.657,212.125 272.615 C 212.285 272.573,212.154 272.539,211.833 272.539 C 211.512 272.539,211.381 272.573,211.542 272.615 " stroke="none" fill="#5c63f4" fill-rule="evenodd"></path><path id="path2" d="M167.566 109.142 C 167.233 109.244,167.291 109.406,168.649 112.169 C 170.380 115.691,171.667 118.480,171.667 118.710 C 171.667 118.875,173.128 118.761,173.307 118.582 C 173.389 118.500,169.473 110.579,168.837 109.542 C 168.509 109.006,168.259 108.928,167.566 109.142 M290.214 125.911 C 299.425 139.936,307.598 156.085,312.907 170.750 C 313.438 172.217,313.936 173.567,314.013 173.750 C 314.233 174.275,315.979 179.599,316.445 181.167 C 317.164 183.585,317.286 184.011,317.993 186.582 C 318.896 189.867,319.701 193.024,320.160 195.083 C 320.364 196.000,320.634 197.200,320.759 197.750 C 321.864 202.604,323.132 210.258,323.836 216.333 C 323.926 217.112,324.076 218.387,324.168 219.167 C 325.469 230.093,325.499 249.908,324.234 262.295 L 324.127 263.341 321.105 265.469 C 318.271 267.465,316.631 268.567,312.583 271.196 C 309.660 273.095,303.500 276.737,300.083 278.585 C 299.442 278.933,298.542 279.422,298.083 279.672 C 296.240 280.681,289.752 283.872,287.167 285.043 C 284.030 286.464,278.910 288.667,278.744 288.667 C 278.684 288.667,278.397 288.774,278.109 288.906 C 275.946 289.893,269.303 292.311,264.750 293.770 C 261.721 294.740,261.596 294.794,261.789 295.046 C 261.874 295.158,262.421 295.913,263.002 296.723 C 264.259 298.472,263.688 298.454,268.417 296.899 C 288.818 290.188,307.772 280.603,325.083 268.241 C 327.013 266.863,327.335 266.568,327.408 266.112 C 329.067 255.787,328.700 231.490,326.656 216.333 C 322.721 187.139,312.463 159.491,295.615 132.667 C 291.331 125.847,290.175 124.333,289.250 124.333 C 289.210 124.333,289.644 125.043,290.214 125.911 M156.750 184.773 C 137.507 186.895,129.582 212.966,143.647 227.876 C 144.856 229.158,145.160 229.240,144.287 228.049 C 140.160 222.424,138.649 213.436,140.580 206.000 C 144.684 190.192,161.116 183.079,173.917 191.569 L 175.083 192.342 173.666 190.963 C 168.975 186.396,162.734 184.112,156.750 184.773 M239.750 184.773 C 220.406 186.904,212.397 213.431,226.725 227.917 C 227.541 228.742,227.985 229.117,227.711 228.750 C 223.784 223.484,221.940 215.903,222.916 209.038 C 225.391 191.630,242.764 182.545,256.623 191.411 L 258.083 192.345 256.577 190.881 C 252.037 186.469,245.591 184.129,239.750 184.773 M134.542 260.950 L 132.032 262.906 132.558 263.228 C 132.847 263.404,133.820 263.952,134.720 264.444 L 136.357 265.340 136.842 264.994 C 137.109 264.803,138.013 264.092,138.849 263.413 C 140.357 262.188,140.375 262.180,140.893 262.405 C 148.024 265.504,151.320 266.789,156.805 268.604 C 187.631 278.807,219.740 278.830,250.333 268.671 C 255.902 266.822,259.158 265.543,266.265 262.412 C 266.749 262.198,266.815 262.214,267.387 262.686 C 267.792 263.020,268.075 263.141,268.235 263.052 C 268.549 262.876,263.743 259.076,263.250 259.110 C 263.067 259.123,262.279 259.433,261.500 259.797 C 255.889 262.425,246.661 265.767,240.000 267.583 C 229.697 270.392,222.218 271.697,210.667 272.702 C 207.689 272.961,193.144 272.961,190.167 272.702 C 183.358 272.110,180.215 271.708,173.833 270.613 C 163.460 268.833,148.260 264.120,139.065 259.834 C 138.322 259.488,137.565 259.157,137.382 259.099 C 137.130 259.019,136.453 259.460,134.542 260.950 M79.667 265.986 C 79.667 266.434,80.058 266.800,82.059 268.223 C 97.611 279.281,113.772 287.827,131.610 294.425 C 135.071 295.705,142.454 298.167,142.833 298.167 C 143.874 298.167,157.096 276.888,156.344 276.423 C 156.257 276.370,155.713 276.147,155.135 275.928 C 154.556 275.710,153.700 275.379,153.232 275.194 L 152.380 274.857 151.605 276.303 C 149.402 280.417,147.255 284.024,144.742 287.833 C 143.177 290.208,140.156 294.549,139.828 294.897 C 139.529 295.214,128.978 291.603,122.309 288.900 C 113.541 285.346,104.303 280.877,96.939 276.626 C 95.827 275.984,94.692 275.329,94.417 275.172 C 91.658 273.588,87.392 270.893,83.132 268.042 C 79.734 265.768,79.667 265.728,79.667 265.986 " stroke="none" fill="#5c4cf4" fill-rule="evenodd"></path><path id="path3" d="M195.208 116.953 C 195.460 116.991,195.873 116.991,196.125 116.953 C 196.377 116.915,196.171 116.883,195.667 116.883 C 195.162 116.883,194.956 116.915,195.208 116.953 M204.377 116.953 C 204.631 116.991,205.006 116.990,205.211 116.951 C 205.416 116.911,205.208 116.880,204.750 116.881 C 204.292 116.882,204.124 116.915,204.377 116.953 M190.627 117.118 C 190.834 117.158,191.134 117.156,191.294 117.115 C 191.453 117.073,191.283 117.040,190.917 117.042 C 190.550 117.044,190.420 117.078,190.627 117.118 M209.294 117.118 C 209.501 117.158,209.801 117.156,209.960 117.115 C 210.120 117.073,209.950 117.040,209.583 117.042 C 209.217 117.044,209.086 117.078,209.294 117.118 M143.661 191.125 L 142.750 192.083 143.708 191.172 C 144.235 190.671,144.667 190.240,144.667 190.214 C 144.667 190.090,144.507 190.235,143.661 191.125 M181.209 207.917 C 181.211 208.283,181.245 208.414,181.285 208.206 C 181.324 207.999,181.323 207.699,181.281 207.540 C 181.239 207.380,181.207 207.550,181.209 207.917 M264.221 209.250 C 264.222 209.892,264.252 210.134,264.288 209.788 C 264.324 209.442,264.324 208.917,264.287 208.621 C 264.250 208.325,264.221 208.608,264.221 209.250 M136.392 209.667 C 136.392 210.446,136.420 210.765,136.455 210.375 C 136.490 209.985,136.490 209.348,136.455 208.958 C 136.420 208.569,136.392 208.887,136.392 209.667 M181.212 210.667 C 181.212 211.079,181.245 211.248,181.284 211.042 C 181.324 210.835,181.324 210.498,181.284 210.292 C 181.245 210.085,181.212 210.254,181.212 210.667 M324.872 229.500 C 324.872 229.821,324.906 229.952,324.948 229.792 C 324.990 229.631,324.990 229.369,324.948 229.208 C 324.906 229.048,324.872 229.179,324.872 229.500 M75.542 230.917 C 75.544 231.283,75.578 231.414,75.618 231.206 C 75.658 230.999,75.656 230.699,75.615 230.540 C 75.573 230.380,75.540 230.550,75.542 230.917 M158.544 234.620 C 158.797 234.658,159.172 234.657,159.377 234.617 C 159.582 234.578,159.375 234.546,158.917 234.548 C 158.458 234.549,158.291 234.581,158.544 234.620 M241.377 234.620 C 241.631 234.658,242.006 234.657,242.211 234.617 C 242.416 234.578,242.208 234.546,241.750 234.548 C 241.292 234.549,241.124 234.581,241.377 234.620 M75.379 235.333 C 75.379 235.746,75.411 235.915,75.451 235.708 C 75.491 235.502,75.491 235.165,75.451 234.958 C 75.411 234.752,75.379 234.921,75.379 235.333 M75.375 247.417 C 75.377 247.783,75.411 247.914,75.451 247.706 C 75.491 247.499,75.490 247.199,75.448 247.040 C 75.406 246.880,75.374 247.050,75.375 247.417 M325.039 248.500 C 325.039 248.821,325.073 248.952,325.115 248.792 C 325.157 248.631,325.157 248.369,325.115 248.208 C 325.073 248.048,325.039 248.179,325.039 248.500 M75.539 252.000 C 75.539 252.321,75.573 252.452,75.615 252.292 C 75.657 252.131,75.657 251.869,75.615 251.708 C 75.573 251.548,75.539 251.679,75.539 252.000 M324.872 252.000 C 324.872 252.321,324.906 252.452,324.948 252.292 C 324.990 252.131,324.990 251.869,324.948 251.708 C 324.906 251.548,324.872 251.679,324.872 252.000 " stroke="none" fill="#999bf6" fill-rule="evenodd"></path><path id="path4" d="M198.384 116.958 C 199.467 116.987,201.192 116.987,202.218 116.958 C 203.244 116.928,202.358 116.905,200.250 116.905 C 198.142 116.905,197.302 116.929,198.384 116.958 M191.792 117.118 C 191.998 117.157,192.335 117.157,192.542 117.118 C 192.748 117.078,192.579 117.045,192.167 117.045 C 191.754 117.045,191.585 117.078,191.792 117.118 M207.958 117.118 C 208.165 117.157,208.502 117.157,208.708 117.118 C 208.915 117.078,208.746 117.045,208.333 117.045 C 207.921 117.045,207.752 117.078,207.958 117.118 M158.542 184.615 C 158.702 184.657,158.965 184.657,159.125 184.615 C 159.285 184.573,159.154 184.539,158.833 184.539 C 158.512 184.539,158.381 184.573,158.542 184.615 M241.542 184.615 C 241.702 184.657,241.965 184.657,242.125 184.615 C 242.285 184.573,242.154 184.539,241.833 184.539 C 241.512 184.539,241.381 184.573,241.542 184.615 M264.205 207.667 C 264.205 207.987,264.240 208.119,264.282 207.958 C 264.323 207.798,264.323 207.535,264.282 207.375 C 264.240 207.215,264.205 207.346,264.205 207.667 M136.372 207.833 C 136.372 208.154,136.406 208.285,136.448 208.125 C 136.490 207.965,136.490 207.702,136.448 207.542 C 136.406 207.381,136.372 207.512,136.372 207.833 M264.209 210.917 C 264.211 211.283,264.245 211.414,264.285 211.206 C 264.324 210.999,264.323 210.699,264.281 210.540 C 264.239 210.380,264.207 210.550,264.209 210.917 M75.542 232.083 C 75.544 232.450,75.578 232.580,75.618 232.373 C 75.658 232.166,75.656 231.866,75.615 231.706 C 75.573 231.547,75.540 231.717,75.542 232.083 M325.053 234.500 C 325.053 235.096,325.084 235.340,325.121 235.042 C 325.158 234.744,325.158 234.256,325.121 233.958 C 325.084 233.660,325.053 233.904,325.053 234.500 M157.375 234.615 C 157.535 234.657,157.798 234.657,157.958 234.615 C 158.119 234.573,157.987 234.539,157.667 234.539 C 157.346 234.539,157.215 234.573,157.375 234.615 M159.875 234.615 C 160.035 234.657,160.298 234.657,160.458 234.615 C 160.619 234.573,160.487 234.539,160.167 234.539 C 159.846 234.539,159.715 234.573,159.875 234.615 M240.208 234.615 C 240.369 234.657,240.631 234.657,240.792 234.615 C 240.952 234.573,240.821 234.539,240.500 234.539 C 240.179 234.539,240.048 234.573,240.208 234.615 M242.708 234.615 C 242.869 234.657,243.131 234.657,243.292 234.615 C 243.452 234.573,243.321 234.539,243.000 234.539 C 242.679 234.539,242.548 234.573,242.708 234.615 M75.385 236.917 C 75.386 237.467,75.417 237.672,75.454 237.372 C 75.491 237.072,75.490 236.622,75.452 236.372 C 75.414 236.122,75.384 236.367,75.385 236.917 M75.385 245.917 C 75.386 246.467,75.417 246.672,75.454 246.372 C 75.491 246.072,75.490 245.622,75.452 245.372 C 75.414 245.122,75.384 245.367,75.385 245.917 M325.053 247.000 C 325.053 247.596,325.084 247.840,325.121 247.542 C 325.158 247.244,325.158 246.756,325.121 246.458 C 325.084 246.160,325.053 246.404,325.053 247.000 M75.545 250.833 C 75.545 251.246,75.578 251.415,75.618 251.208 C 75.657 251.002,75.657 250.665,75.618 250.458 C 75.578 250.252,75.545 250.421,75.545 250.833 M192.627 272.785 C 192.834 272.824,193.134 272.823,193.294 272.781 C 193.453 272.739,193.283 272.707,192.917 272.709 C 192.550 272.711,192.420 272.745,192.627 272.785 M207.627 272.785 C 207.834 272.824,208.134 272.823,208.294 272.781 C 208.453 272.739,208.283 272.707,207.917 272.709 C 207.550 272.711,207.420 272.745,207.627 272.785 M196.711 272.953 C 196.964 272.991,197.339 272.990,197.544 272.951 C 197.749 272.911,197.542 272.880,197.083 272.881 C 196.625 272.882,196.457 272.915,196.711 272.953 M203.377 272.953 C 203.631 272.991,204.006 272.990,204.211 272.951 C 204.416 272.911,204.208 272.880,203.750 272.881 C 203.292 272.882,203.124 272.915,203.377 272.953 " stroke="none" fill="#acb4fc" fill-rule="evenodd"></path></g></svg>